<svg width="30" height="30" viewBox="0 0 30 30" fill="none" xmlns="http://www.w3.org/2000/svg">
<path d="M15 22.75C17.7614 22.75 20 20.5114 20 17.75C20 14.9886 17.7614 12.75 15 12.75C12.2386 12.75 10 14.9886 10 17.75C10 20.5114 12.2386 22.75 15 22.75Z" stroke="white" stroke-width="2" stroke-miterlimit="10" stroke-linecap="round" stroke-linejoin="round"/>
<path d="M16.3375 19.1375L13.6875 16.5" stroke="white" stroke-width="2" stroke-miterlimit="10" stroke-linecap="round" stroke-linejoin="round"/>
<path d="M16.3125 16.525L13.6625 19.175" stroke="white" stroke-width="2" stroke-miterlimit="10" stroke-linecap="round" stroke-linejoin="round"/>
<path d="M10 27.5H20C25.025 27.5 25.925 25.4875 26.1875 23.0375L27.125 13.0375C27.4625 9.9875 26.5875 7.5 21.25 7.5H8.75003C3.41253 7.5 2.53753 9.9875 2.87503 13.0375L3.81253 23.0375C4.07503 25.4875 4.97503 27.5 10 27.5Z" stroke="white" stroke-width="2" stroke-miterlimit="10" stroke-linecap="round" stroke-linejoin="round"/>
<path d="M10 7.5V6.5C10 4.2875 10 2.5 14 2.5H16C20 2.5 20 4.2875 20 6.5V7.5" stroke="white" stroke-width="2" stroke-miterlimit="10" stroke-linecap="round" stroke-linejoin="round"/>
<path d="M27.0625 13.75C24.9 15.325 22.5 16.425 20.0125 17.05" stroke="white" stroke-width="2" stroke-miterlimit="10" stroke-linecap="round" stroke-linejoin="round"/>
<path d="M3.27502 14.0875C5.36252 15.5125 7.63752 16.525 10 17.1" stroke="white" stroke-width="2" stroke-miterlimit="10" stroke-linecap="round" stroke-linejoin="round"/>
</svg>
