<svg width="208" height="127" viewBox="0 0 208 127" fill="none" xmlns="http://www.w3.org/2000/svg">
<path opacity="0.8" fill-rule="evenodd" clip-rule="evenodd" d="M41.7631 23.7932C43.902 17.0833 45.8925 12.9056 47.7314 11.2586C52.8237 6.69992 59.8647 9.18092 61.3616 9.53626C66.6201 10.788 64.9103 2.55106 69.4219 0.876788C72.4287 -0.23886 74.9015 1.12489 76.8419 4.96803C78.5598 1.38259 81.1778 -0.259668 84.6958 0.0332496C89.9737 0.476627 91.8207 18.1653 99.0729 14.2934C106.327 10.4198 115.219 9.53466 119.018 15.2906C119.839 16.5359 120.154 14.6039 125.738 8.00765C131.322 1.4098 136.891 -1.49696 148.314 2.34458C153.508 4.08928 157.78 8.81917 161.133 16.5327C161.133 27.5419 169.295 34.0597 185.616 36.0813C210.1 39.1145 191.095 65.2354 161.133 72.8849C131.169 80.5359 62.1842 84.6656 24.7487 65.3362C-0.208271 52.4527 5.46319 38.6039 41.7615 23.7932H41.7631Z" fill="url(#paint0_linear_3_21481)"/>
<path d="M103.156 121.08C128.088 121.08 148.3 116.438 148.3 110.711C148.3 104.985 128.088 100.342 103.156 100.342C78.223 100.342 58.0113 104.985 58.0113 110.711C58.0113 116.438 78.223 121.08 103.156 121.08Z" fill="url(#paint1_linear_3_21481)"/>
<path opacity="0.675" fill-rule="evenodd" clip-rule="evenodd" d="M179.372 123.649C145.429 132.097 29.5685 122.434 17.2368 118.021C11.2347 115.872 5.82454 111.83 1.008 105.895C0.468916 105.231 0.130071 104.43 0.030616 103.583C-0.0688395 102.736 0.0751542 101.879 0.445957 101.11C0.816761 100.341 1.39924 99.6923 2.12608 99.238C2.85293 98.7837 3.69447 98.5428 4.55346 98.5431H207.013C211.215 109.648 202.001 118.017 179.372 123.649Z" fill="url(#paint2_linear_3_21481)"/>
<path d="M137.797 82.9225L122.359 65.0081C121.994 64.5808 121.54 64.2365 121.029 63.999C120.517 63.7614 119.96 63.6361 119.396 63.6316H86.1993C85.0604 63.6316 83.9781 64.1502 83.2361 65.0081L67.7977 82.9225V92.7569H137.797V82.9225Z" fill="url(#paint3_linear_3_21481)"/>
<path d="M133.423 93.1186L119.91 77.5156C119.584 77.1472 119.181 76.8528 118.729 76.6526C118.278 76.4524 117.788 76.3509 117.294 76.3551H88.3011C87.3058 76.3551 86.3331 76.7649 85.6847 77.5156L72.1722 93.1186V101.688H133.423V93.1186Z" fill="url(#paint4_linear_3_21481)"/>
<path d="M137.797 104.027C137.797 105.392 137.178 106.62 136.2 107.443L136.002 107.603C135.227 108.186 134.281 108.501 133.308 108.499H72.2884C71.7367 108.499 71.2093 108.4 70.7221 108.217L70.4802 108.121C69.6819 107.769 69.0037 107.195 68.5276 106.468C68.0515 105.741 67.798 104.892 67.7977 104.025V83.0298H84.7814C86.6574 83.0298 88.1688 84.5616 88.1688 86.4199V86.444C88.1688 88.3039 89.6979 89.8037 91.5739 89.8037H114.021C114.923 89.8029 115.787 89.4475 116.426 88.8154C117.064 88.1832 117.424 87.3259 117.426 86.4311C117.426 84.5648 118.939 83.0298 120.814 83.0298H137.799L137.797 104.027Z" fill="url(#paint5_linear_3_21481)"/>
<defs>
<linearGradient id="paint0_linear_3_21481" x1="107.56" y1="59.1438" x2="107.56" y2="-13.9792" gradientUnits="userSpaceOnUse">
<stop stop-color="#DEDEDE" stop-opacity="0"/>
<stop offset="1" stop-color="#A9A9A9" stop-opacity="0.3"/>
</linearGradient>
<linearGradient id="paint1_linear_3_21481" x1="98.4515" y1="121.08" x2="98.4515" y2="100.342" gradientUnits="userSpaceOnUse">
<stop stop-color="white" stop-opacity="0"/>
<stop offset="1" stop-color="#96A1C5" stop-opacity="0.373"/>
</linearGradient>
<linearGradient id="paint2_linear_3_21481" x1="104" y1="127" x2="104" y2="92.9442" gradientUnits="userSpaceOnUse">
<stop stop-color="white" stop-opacity="0"/>
<stop offset="1" stop-color="#919191" stop-opacity="0.15"/>
</linearGradient>
<linearGradient id="paint3_linear_3_21481" x1="102.797" y1="63.6316" x2="102.797" y2="76.7234" gradientUnits="userSpaceOnUse">
<stop stop-color="#958CC4"/>
<stop offset="1" stop-color="#5546A0"/>
</linearGradient>
<linearGradient id="paint4_linear_3_21481" x1="110.971" y1="101.688" x2="110.971" y2="75.0083" gradientUnits="userSpaceOnUse">
<stop stop-color="#EAE8F4"/>
<stop offset="1" stop-color="#D5D1E8"/>
</linearGradient>
<linearGradient id="paint5_linear_3_21481" x1="102.798" y1="83.0298" x2="102.798" y2="108.499" gradientUnits="userSpaceOnUse">
<stop stop-color="#958CC4"/>
<stop offset="1" stop-color="#B5AFD6"/>
</linearGradient>
</defs>
</svg>
