<svg width="30" height="30" viewBox="0 0 30 30" fill="none" xmlns="http://www.w3.org/2000/svg">
<path d="M13.1124 2.78745L6.87495 5.12495C5.43745 5.66245 4.26245 7.36243 4.26245 8.89993V18.1874C4.26245 19.6624 5.23746 21.5999 6.42496 22.4874L11.7999 26.5C13.5624 27.825 16.4624 27.825 18.2249 26.5L23.6 22.4874C24.7875 21.5999 25.7624 19.6624 25.7624 18.1874V8.89993C25.7624 7.36243 24.5874 5.66245 23.1499 5.12495L16.9124 2.78745C15.8499 2.39995 14.1499 2.39995 13.1124 2.78745Z" stroke="white" stroke-width="2" stroke-linecap="round" stroke-linejoin="round"/>
<path d="M15 13.65C14.95 13.65 14.8875 13.65 14.8375 13.65C13.6625 13.6125 12.725 12.6375 12.725 11.45C12.725 10.2375 13.7125 9.25 14.925 9.25C16.1375 9.25 17.125 10.2375 17.125 11.45C17.1125 12.65 16.175 13.6125 15 13.65Z" stroke="white" stroke-width="2" stroke-linecap="round" stroke-linejoin="round"/>
<path d="M12.5125 17.1501C11.3125 17.9501 11.3125 19.2626 12.5125 20.0626C13.875 20.9751 16.1126 20.9751 17.4751 20.0626C18.6751 19.2626 18.6751 17.9501 17.4751 17.1501C16.1251 16.2376 13.8875 16.2376 12.5125 17.1501Z" stroke="white" stroke-width="2" stroke-linecap="round" stroke-linejoin="round"/>
</svg>
